<?xml version="1.0" encoding="UTF-8" standalone="no"?>
<svg
   width="30.000004"
   height="29.500093"
   version="1.1"
   id="svg4"
   xmlns="http://www.w3.org/2000/svg"
   xmlns:svg="http://www.w3.org/2000/svg">
  <defs
     id="defs8" />
  <path
     fill-rule="evenodd"
     clip-rule="evenodd"
     d="M 15.012412,0 C 6.7109359,0 0,6.7604098 0,15.123959 c 0,6.68543 4.2999279,12.344508 10.265068,14.347433 0.745796,0.150573 1.018978,-0.325422 1.018978,-0.725822 0,-0.35062 -0.02458,-1.552436 -0.02458,-2.804649 -4.176089,0.901593 -5.0457236,-1.802878 -5.0457236,-1.802878 -0.6711243,-1.75279 -1.6655191,-2.203279 -1.6655191,-2.203279 -1.3668319,-0.926483 0.099562,-0.926483 0.099562,-0.926483 1.5161755,0.100177 2.3117529,1.552436 2.3117529,1.552436 1.3419413,2.303456 3.5043508,1.652612 4.3742928,1.251905 0.124146,-0.976572 0.522088,-1.652613 0.944614,-2.028123 -3.3307318,-0.35062 -6.8350824,-1.652613 -6.8350824,-7.461956 0,-1.652613 0.5961453,-3.004695 1.5407589,-4.056246 -0.1490399,-0.3755102 -0.6711279,-1.9282534 0.14934,-4.0064648 0,0 1.2675768,-0.400708 4.1256935,1.5524359 a 14.433475,14.433475 0 0 1 3.753257,-0.5008849 c 1.267577,0 2.559737,0.1754633 3.752949,0.5008849 2.858424,-1.9531439 4.126001,-1.5524359 4.126001,-1.5524359 0.820468,2.0782114 0.298073,3.6309546 0.149036,4.0064648 0.969505,1.051551 1.541066,2.403633 1.541066,4.056246 0,5.809343 -3.50435,7.086138 -6.859972,7.461956 0.546979,0.475687 1.018978,1.376972 1.018978,2.80434 0,2.028123 -0.02458,3.655846 -0.02458,4.156423 0,0.400708 0.273489,0.876703 1.018978,0.726437 5.96514,-2.00354 10.265068,-7.66231 10.265068,-14.34774 C 30.024516,6.7604098 23.288997,0 15.012412,0 Z"
     fill="#ffffff"
     id="path2"
     style="stroke-width:0.307291" />
</svg>
