<?xml version="1.0" encoding="UTF-8" standalone="no"?>
<!-- Created with Inkscape (http://www.inkscape.org/) -->

<svg
   version="1.1"
   id="svg2"
   width="30.000002"
   height="29.999998"
   viewBox="0 0 30.000003 29.999997"
   sodipodi:docname="in.svg"
   xmlns:inkscape="http://www.inkscape.org/namespaces/inkscape"
   xmlns:sodipodi="http://sodipodi.sourceforge.net/DTD/sodipodi-0.dtd"
   xmlns="http://www.w3.org/2000/svg"
   xmlns:svg="http://www.w3.org/2000/svg">
  <defs
     id="defs6" />
  <sodipodi:namedview
     id="namedview4"
     pagecolor="#ffffff"
     bordercolor="#000000"
     borderopacity="0.25"
     inkscape:showpageshadow="2"
     inkscape:pageopacity="0.0"
     inkscape:pagecheckerboard="0"
     inkscape:deskcolor="#d1d1d1"
     showgrid="false" />
  <g
     inkscape:groupmode="layer"
     inkscape:label="Image"
     id="g8"
     transform="translate(-426.67388,192.17556)">
    <path
       id="rect351"
       style="opacity:1;fill:#ffffff;fill-opacity:1;stroke-width:0.175473"
       d="m 428.88429,-192.17556 c -1.22453,0 -2.21041,0.98588 -2.21041,2.21041 v 25.57918 c 0,1.22453 0.98588,2.21041 2.21041,2.21041 h 25.57918 c 1.22453,0 2.21041,-0.98588 2.21041,-2.21041 v -25.57918 c 0,-1.22453 -0.98588,-2.21041 -2.21041,-2.21041 z m 4.33811,4.09235 c 0.69052,0 1.28037,0.24592 1.76949,0.73829 0.49871,0.49236 0.74785,1.08898 0.74785,1.78966 0,0.6912 -0.24438,1.28293 -0.7335,1.7753 -0.48911,0.48289 -1.0742,0.72427 -1.75513,0.72427 -0.70011,0 -1.2995,-0.24592 -1.7982,-0.73829 -0.48912,-0.50183 -0.73384,-1.10788 -0.73384,-1.81802 0,-0.68174 0.24472,-1.26404 0.73384,-1.74693 0.48911,-0.4829 1.07897,-0.72428 1.76949,-0.72428 z m 14.08347,5.96507 c 1.55366,0 2.87258,0.5348 3.95631,1.60475 0.9111,0.90897 1.36651,2.25382 1.36651,4.0339 v 10.21158 h -3.8842 v -6.77479 c 0,-1.84637 -0.0861,-3.07245 -0.25874,-3.67844 -0.16304,-0.60598 -0.45575,-1.06498 -0.87774,-1.37745 -0.41239,-0.32193 -0.92532,-0.48296 -1.53911,-0.48296 -0.79602,0 -1.48186,0.26513 -2.05729,0.79537 -0.56584,0.52077 -0.95896,1.2449 -1.17955,2.17281 -0.11508,0.4829 -0.1726,1.52943 -0.1726,3.13908 v 6.20638 h -3.91291 v -15.45272 h 3.91291 v 1.57672 c 0.89192,-0.73854 1.69756,-1.24993 2.41685,-1.53399 0.72888,-0.29352 1.4719,-0.44024 2.22956,-0.44024 z m -16.05428,0.39751 h 3.94162 v 15.45272 h -3.94162 z" />
  </g>
</svg>
